# xmcd
#
# Track frame offsets:
#	150
#	18315
#	34264
#	51067
#	73756
#	90398
#	112730
#	130426
#	148552
#	170301
#	189295
#	207151
#	226130
#	247308
#	268666
#	297776
#
# Disc length: 4625 seconds
#
# Revision: 0
# Processed by: cddbd v1.5.2PL0 Copyright (c) Steve Scherf et al.
# Submitted via: audiograbber 1.83.01
#
DISCID=df120f10
DTITLE=All Star Karaoke Various - ASK-67 Disk 1 Love Songs Vol 1
DYEAR=2006
DGENRE=Karaoke
TTITLE0=Air Supply - All Out Of Love
TTITLE1=Barry White - Can't Get Enough Of Your Love
TTITLE2=Bette Miller - The Rose
TTITLE3=Bette Midler - Wind Beneath My Wings
TTITLE4=Brian McKnight - Back At One
TTITLE5=Bryan Adams - Have You Ever Really Loved A Woman?
TTITLE6=Bryan Adams - Heaven
TTITLE7=Carrie Underwood - Don't Forget To Remeber Me 
TTITLE8=Celine Dion - Because You Loved Me
TTITLE9=Clint Black and Lisa Hartman-Black - When I Said I Do
TTITLE10=Collin Raye - Love Me
TTITLE11=Delta Goodrem - Lost Without You
TTITLE12=Lionel Richie and Diana Ross - Endless Love
TTITLE13=Dolly Parton - Just When I Needed You Most
TTITLE14=Elton John - Can You Feel The Love Tonight
TTITLE15=None - Data Track
EXTD=
EXTT0=
EXTT1=
EXTT2=
EXTT3=
EXTT4=
EXTT5=
EXTT6=
EXTT7=
EXTT8=
EXTT9=
EXTT10=
EXTT11=
EXTT12=
EXTT13=
EXTT14=
EXTT15=
PLAYORDER=
